<?xml version="1.0" encoding="UTF-8"?>
<svg width="512" height="512" viewBox="0 0 512 512" xmlns="http://www.w3.org/2000/svg">
    <!-- 背景圆形 -->
    <circle cx="256" cy="256" r="240" fill="#4CAF50" opacity="0.1"/>
    
    <!-- APK文件图标 -->
    <path d="M320 144H192c-17.7 0-32 14.3-32 32v160c0 17.7 14.3 32 32 32h128c17.7 0 32-14.3 32-32V176c0-17.7-14.3-32-32-32zm-64 184c-13.3 0-24-10.7-24-24s10.7-24 24-24 24 10.7 24 24-10.7 24-24 24zm64-88H192v-64h128v64z" fill="#4CAF50"/>
    
    <!-- 证书图标 -->
    <path d="M368 256c0 61.9-50.1 112-112 112s-112-50.1-112-112 50.1-112 112-112 112 50.1 112 112zm-112-80c-44.2 0-80 35.8-80 80s35.8 80 80 80 80-35.8 80-80-35.8-80-80-80zm0 104c-13.3 0-24-10.7-24-24s10.7-24 24-24 24 10.7 24 24-10.7 24-24 24z" fill="#2196F3"/>
    
    <!-- 锁定图标 -->
    <path d="M256 288c-17.7 0-32-14.3-32-32s14.3-32 32-32 32 14.3 32 32-14.3 32-32 32zm0-48c-8.8 0-16 7.2-16 16s7.2 16 16 16 16-7.2 16-16-7.2-16-16-16z" fill="#FFC107"/>
    
    <!-- 勾选标记 -->
    <path d="M363.3 277.3c-3.1-3.1-8.2-3.1-11.3 0l-69.3 69.3-26.7-26.7c-3.1-3.1-8.2-3.1-11.3 0-3.1 3.1-3.1 8.2 0 11.3l32 32c1.6 1.6 3.6 2.3 5.7 2.3s4.1-0.8 5.7-2.3l74.7-74.7c3.1-3.1 3.1-8.1-0.2-11.2z" fill="#4CAF50"/>
</svg>